<svg width="32" height="32" viewBox="0 0 44 32" fill="none" xmlns="http://www.w3.org/2000/svg">
        <path fill-rule="evenodd" clip-rule="evenodd" d="M41.5114 15.9338C41.5114 15.9338 42.4042 16.6526 42.6258 17.2215C42.8244 17.7317 42.6258 18.4556 42.6258 18.4556C42.6258 18.4556 44.2819 19.8976 45.0217 20.0653C45.7616 20.2329 46.4147 19.3141 46.4147 19.3141C46.4147 19.3141 46.2754 20.5376 45.4118 20.9237C43.8516 21.6213 42.7929 20.0653 42.7929 20.0653C42.7929 20.0653 41.7611 21.7151 41.2885 22.8553C41.1435 23.2051 41.0745 23.5898 41.0069 23.9672C40.878 24.6861 40.7538 25.3785 40.1183 25.7527C39.5903 26.0636 38.8925 25.8064 38.8925 25.8064C38.8925 25.8064 38.0505 25.4962 37.6667 25.1088C37.2704 24.7089 37.3183 24.3026 37.3729 23.8401C37.4218 23.4258 37.476 22.9664 37.2209 22.4261C37.0235 22.0079 36.8089 21.6653 36.6078 21.3442C36.2412 20.7589 35.9193 20.245 35.8279 19.475C35.731 18.6589 35.8223 18.1578 36.0508 17.3825C36.2793 16.6072 37.2209 15.3972 37.2209 15.3972C37.2209 15.3972 36.3053 15.9875 35.7165 16.685C35.1276 17.3825 34.3792 18.9922 34.3792 18.9922C34.3792 18.9922 34.0531 18.7978 33.9334 17.8654C33.8137 16.933 33.7663 13.8412 33.7663 13.8412C33.7663 13.8412 33.307 15.5287 33.2091 16.524C33.191 16.7076 33.1692 16.8808 33.1483 17.047C33.0557 17.7819 32.9801 18.3819 33.3205 19.1531C33.7111 20.0382 34.4355 20.6981 35.1276 21.3286C36.1139 22.227 37.0346 23.0658 36.8309 24.4113C36.6931 25.3208 35.8836 26.1283 35.8836 26.1283L32.9305 28.8111L31.8161 28.5964L32.2061 29.7769L29.8101 29.9378C29.8101 29.9378 29.7963 29.126 29.9773 28.6501C30.1352 28.2351 30.5902 27.6843 30.5902 27.6843C30.5902 27.6843 31.6022 28.0051 31.9832 27.6306C32.1535 27.4633 32.2618 27.0941 32.2618 27.0941L30.8688 27.3087C30.8688 27.3087 31.4801 26.9176 31.8718 26.7185C32.2635 26.5194 32.9862 26.3429 32.9862 26.3429C32.9862 26.3429 34.2963 25.8095 34.7135 24.7869C34.9953 24.0962 33.9262 23.5196 32.7536 22.8872C32.1749 22.5751 31.5709 22.2493 31.0917 21.8895C30.6557 21.5622 30.2547 21.3328 29.8734 21.1145C29.246 20.7555 28.6719 20.427 28.0828 19.7433C27.4625 19.0234 27.2118 18.3568 27.1356 17.3825C27.0595 16.4081 27.4142 14.6997 27.4142 14.6997C27.4142 14.6997 26.6302 16.0665 26.467 17.1142C26.3038 18.1619 26.3237 19.1471 26.9685 20.1189C28.25 22.0505 30.8688 22.6944 30.8688 22.6944V23.07C30.8688 23.07 28.5226 24.2955 27.3585 25.2698C27.204 25.3991 27.0036 25.5346 26.785 25.6823C26.2935 26.0145 25.7105 26.4085 25.3526 26.9331C24.67 27.9339 24.5168 29.1866 24.5168 29.1866C24.5168 29.1866 26.0344 29.3787 26.5784 29.7769C27.1224 30.175 27.3585 31.0646 27.3585 31.0646L26.5784 30.528V31.0646H24.3497C24.3497 31.0646 24.7851 30.2061 24.2382 29.5622C23.6913 28.9184 22.8452 29.4549 22.8452 29.4549L22.9567 28.4355C22.9567 28.4355 23.5399 27.3301 24.2382 26.2356C24.4331 25.9301 24.6598 25.6298 24.8698 25.3517C25.0548 25.1065 25.2268 24.8787 25.3526 24.6796C26.1327 23.4455 25.8541 23.2309 25.8541 23.2309C25.8541 23.2309 26.6664 23.1433 27.0799 23.07C27.4933 22.9966 28.0828 22.8017 28.0828 22.8017C28.0828 22.8017 25.3485 22.3144 23.7367 21.9432C21.6937 21.4726 20.9837 21.3037 18.9448 20.8164C18.5846 20.7303 18.2496 20.6047 17.9184 20.4806C17.3077 20.2516 16.71 20.0275 15.9917 20.0653C14.899 20.1227 13.0942 20.9237 13.0942 20.9237C13.0942 20.9237 13.8245 20.0731 14.1529 19.3677C14.4941 18.6349 14.9887 16.8459 14.9887 16.8459C14.9887 16.8459 12.0744 21.0051 10.6425 22.5334C9.17881 24.0957 7.07645 25.3771 7.07645 25.3771C7.07645 25.3771 4.36297 24.6179 2.786 25.3771C2.42702 25.55 2.56115 26.0966 2.7194 26.7415C2.90502 27.4981 3.12383 28.3898 2.61884 28.972C2.48076 29.1312 2.2288 29.3476 2.2288 29.3476L1.83876 29.6695C1.83876 29.6695 2.76158 29.62 3.28748 29.8305C3.7056 29.9979 3.93052 30.1514 4.23472 30.4744C4.65335 30.9188 4.90337 31.8694 4.90337 31.8694L3.78896 30.9573V31.9767C3.78896 31.9767 3.09888 32.0291 2.67456 31.9767C2.25024 31.9243 1.61588 31.7084 1.61588 31.7084C1.61588 31.7084 1.74528 30.9051 1.50444 30.4744C1.2856 30.083 0.557201 29.6695 0.557201 29.6695L0 29.8842C0 29.8842 0.856972 29.1963 1.28156 28.2208C1.99831 26.5741 1.61588 23.6602 1.61588 23.6602C1.61588 23.6602 4.03391 23.637 4.79192 22.1042C5.58889 20.4925 5.47393 18.7712 5.34378 16.8223C5.29194 16.046 5.23769 15.2337 5.23769 14.3778C5.23769 13.272 5.45041 12.4757 5.73917 11.5877C5.96305 10.8992 6.46353 10.1408 6.46353 10.1408C6.46353 10.1408 6.79785 9.7116 6.29637 9.17504C5.79489 8.63849 5.62238 8.62284 5.34378 8.3009C5.06518 7.97897 3.98047 6.5145 5.73917 5.58014C7.35505 4.72166 10.0096 5.17078 12.4813 5.17078C13.93 5.17078 16.8832 4.64196 17.6633 3.112C18.4433 1.58205 17.9651 1.89457 18.5548 1.23407C19.2591 0.445192 21.0065 0 21.0065 0C21.0065 0 20.5879 1.6942 19.8363 2.46814C19.3785 2.93963 18.9622 3.02518 18.4433 3.43393C17.2175 4.39973 17.0503 4.77168 15.2116 5.31187C11.9241 6.27766 10.6534 5.53483 8.07941 5.84842C5.43696 6.17035 6.21642 7.78745 7.54581 8.3009C7.54581 8.3009 8.68277 8.4608 9.41669 8.47753C10.201 8.4954 10.6425 8.37489 11.4226 8.37022C12.2027 8.36554 12.5749 8.37215 13.0385 8.37022C13.9458 8.36643 14.3714 8.40563 15.0444 8.31476C17.7163 7.95405 19.4838 6.55657 21.2366 5.17078L21.2367 5.17071L21.2369 5.17055C23.3094 3.532 25.3611 1.90981 28.8629 2.03706C35.8279 2.29015 41.2328 12.6608 41.2328 12.6608C41.2328 12.6608 40.0626 11.9097 39.3383 12.9291C38.6139 13.9486 39.2826 15.0753 39.2826 15.0753C39.2826 15.0753 39.4154 14.1895 39.8397 13.9486C40.2641 13.7076 40.8555 13.7023 41.4556 13.8949C41.7247 13.9813 41.9876 14.1224 42.2553 14.2661C42.6529 14.4794 43.0613 14.6987 43.5173 14.7534C44.4076 14.8603 45.4675 14.1095 45.4675 14.1095C45.4675 14.1095 45.3264 14.8591 45.0217 15.2363C44.7171 15.6135 44.4097 15.8403 43.9073 16.0411C43.6192 16.1563 43.05 16.0478 42.583 15.9588C42.4094 15.9258 42.2499 15.8954 42.1243 15.8802C41.573 15.8134 41.5114 15.9338 41.5114 15.9338ZM40.7313 19.8506C40.8065 20.1885 40.5641 20.6555 40.5641 20.6555C40.5641 20.6555 40.2829 20.2081 40.1741 19.9043C40.0653 19.6005 40.0069 19.0995 40.0069 19.0995C40.0069 19.0995 40.263 19.1254 40.3969 19.2068C40.6221 19.3436 40.6652 19.5441 40.7161 19.781L40.7162 19.7815L40.7198 19.7982C40.7235 19.8155 40.7273 19.833 40.7313 19.8506Z" fill="#A52838"></path>
</svg>
